<svg data-v-423bf9ae="" xmlns="http://www.w3.org/2000/svg" viewBox="0 0 337 90" class="iconLeft"><!----><!----><!----><g data-v-423bf9ae="" id="32f40652-e7e4-44c2-8c2a-5917a2c0bac0" fill="black" transform="matrix(5.725191116333008,0,0,5.725191116333008,71.1266098022461,-4.408400058746338)"><path d="M0.73 13.79L-0.88 12.31L-0.88 12.31Q1.18 7.67 4.13 3.74L4.13 3.74L5.56 5.19L5.56 5.19Q4.13 7.17 3.22 8.81L3.22 8.81L3.22 8.81Q1.61 11.72 0.73 13.79L0.73 13.79ZM12.84 10.14L13.15 11.55L13.15 11.55Q11.24 12.82 9.24 13.76L9.24 13.76L7.49 12.53L7.49 12.53Q7.06 11.30 6.92 10.15L6.92 10.15L6.92 10.15Q6.20 11.77 5.50 13.76L5.50 13.76L3.84 12.68L3.84 12.68Q5.05 9.41 7.18 5.66L7.18 5.66L7.18 5.66Q7.85 4.48 8.55 3.39L8.55 3.39L10.00 4.47L10.00 4.47Q8.58 6.55 7.35 9.17L7.35 9.17L7.35 9.17Q9.23 7.42 11.24 5.98L11.24 5.98L12.67 7.31L12.67 7.31Q10.09 8.95 8.69 9.95L8.69 9.95L8.69 9.95Q8.93 10.63 9.41 11.59L9.41 11.59L9.41 11.59Q11.19 10.99 12.84 10.14L12.84 10.14ZM17.65 13.71L16.58 12.50L16.58 12.50Q15.47 13.37 14.03 13.76L14.03 13.76L12.29 12.15L12.29 12.15Q12.29 11.05 12.63 9.98L12.63 9.98L12.63 9.98Q12.96 8.92 13.62 8.06L13.62 8.06L13.62 8.06Q14.28 7.21 15.25 6.64L15.25 6.64L15.25 6.64Q16.23 6.08 17.50 5.96L17.50 5.96L18.42 7.38L18.42 7.38Q18.59 7.11 19.14 6.45L19.14 6.45L20.51 7.63L20.51 7.63Q19.12 9.44 18.21 11.49L18.21 11.49L18.17 11.52L18.17 11.52Q18.98 11.31 20.08 10.80L20.08 10.80L20.08 10.80Q21.17 10.29 21.46 10.14L21.46 10.14L21.77 11.55L21.77 11.55Q20.94 12.15 19.03 13.10L19.03 13.10L19.03 13.10Q18.27 13.48 17.65 13.71L17.65 13.71ZM14.25 11.75L14.25 11.75L14.25 11.75Q15.75 11.34 16.98 9.76L16.98 9.76L16.98 9.76Q17.35 8.96 17.53 7.77L17.53 7.77L17.53 7.77Q16.09 7.91 15.16 9.04L15.16 9.04L15.16 9.04Q14.25 10.16 14.25 11.75ZM21.92 7.11L21.92 7.11L21.92 7.11Q22.60 6.20 23.60 5.22L23.60 5.22L24.91 6.23L24.91 6.23Q24.75 6.87 24.64 7.17L24.64 7.17L24.64 7.17Q26.45 6.97 27.24 6.78L27.24 6.78L27.24 6.78Q28.04 6.58 28.63 6.43L28.63 6.43L29.02 8.09L29.02 8.09Q28.45 8.26 27.82 8.39L27.82 8.39L27.82 8.39Q26.85 9.91 26.21 11.62L26.21 11.62L26.21 11.62Q28.53 10.82 29.64 10.14L29.64 10.14L29.95 11.55L29.95 11.55Q28.66 12.39 26.57 13.27L26.57 13.27L26.57 13.27Q25.90 13.55 25.28 13.76L25.28 13.76L23.80 12.28L23.80 12.28Q24.71 10.19 25.75 8.68L25.75 8.68L25.75 8.68Q24.77 8.76 24.01 8.79L24.01 8.79L24.01 8.79Q23.79 9.21 22.81 10.89L22.81 10.89L21.77 11.55L20.44 10.77L20.44 10.77Q21.60 9.51 22.01 9.00L22.01 9.00L22.01 9.00Q22.41 8.50 22.71 8.13L22.71 8.13L22.71 8.13Q22.30 7.69 21.92 7.11ZM35.29 12.57L34.62 11.80L34.62 11.80Q33.28 13.36 31.08 13.76L31.08 13.76L29.09 12.10L29.09 12.10Q29.09 10.75 29.62 9.44L29.62 9.44L29.62 9.44Q30.30 7.78 31.84 6.76L31.84 6.76L31.84 6.76Q32.90 6.05 34.15 5.88L34.15 5.88L36.37 7.78L36.37 7.78Q36.13 9.30 35.56 10.42L35.56 10.42L35.56 10.42Q36.57 10.36 37.84 10.14L37.84 10.14L38.15 11.55L38.15 11.55Q36.33 12.31 35.29 12.57L35.29 12.57ZM30.97 11.86L30.97 11.86L30.97 11.86Q32.56 11.49 33.63 9.88L33.63 9.88L33.63 9.88Q34.08 9.20 34.27 8.57L34.27 8.57L34.27 8.57Q34.47 7.94 34.48 7.56L34.48 7.56L34.48 7.56Q33.35 7.71 32.33 8.76L32.33 8.76L32.33 8.76Q31.05 10.07 30.97 11.86ZM39.66 13.87L39.66 13.87L39.66 13.87Q38.65 13.20 37.90 12.60L37.90 12.60L37.90 12.60Q37.21 12.00 36.40 11.16L36.40 11.16L37.84 10.14L37.84 10.14Q38.82 11.16 39.28 11.50L39.28 11.50L39.28 11.50Q39.75 11.84 40.11 12.08L40.11 12.08L40.11 12.08Q40.50 12.04 41.38 11.82L41.38 11.82L39.06 9.62L39.06 9.62Q38.74 9.28 38.56 9.02L38.56 9.02L38.56 9.02Q39.09 8.06 40.39 7.04L40.39 7.04L40.39 7.04Q41.61 6.09 42.71 5.77L42.71 5.77L44.95 7.57L44.95 7.57Q44.72 8.53 43.83 10.09L43.83 10.09L42.34 8.97L42.34 8.97Q42.63 8.54 42.85 8.04L42.85 8.04L42.85 8.04Q43.08 7.53 43.12 7.36L43.12 7.36L43.12 7.36Q42.34 7.66 41.51 8.43L41.51 8.43L41.51 8.43Q41.22 8.71 40.98 9.00L40.98 9.00L40.98 9.00Q41.24 9.41 41.79 9.86L41.79 9.86L41.79 9.86Q42.71 10.65 43.34 11.23L43.34 11.23L43.34 11.23Q44.90 10.70 45.98 10.14L45.98 10.14L46.27 11.55L46.27 11.55Q45.15 12.35 43.12 13.03L43.12 13.03L43.12 13.03Q41.24 13.66 39.66 13.87Z"></path></g><!----><g data-v-423bf9ae="" id="85d2cb25-8111-4388-addd-62365dbe4857" transform="matrix(2.8125,0,0,2.8125,-21.194406509399414,0)" stroke="none" fill="black"><path d="M18.396 26.495L7.807 15.905 18.432 5.28l.707.707-9.918 9.918 9.882 9.883z"></path><path d="M23.194 1v4.194H19V1h4.194m1-1H18v6.194h6.194V0zM23.194 26.806V31H19v-4.194h4.194m1-1H18V32h6.194v-6.194z"></path></g><!----></svg>